<svg width="9" height="6" viewBox="0 0 9 6" fill="none" xmlns="http://www.w3.org/2000/svg">
<path d="M0.256423 0.957107C0.374844 0.838722 0.535435 0.772217 0.702882 0.772217C0.870329 0.772217 1.03092 0.838722 1.14934 0.957107L4.27519 4.08295L7.40103 0.957107C7.52013 0.842077 7.67964 0.778427 7.84522 0.779865C8.01079 0.781304 8.16917 0.847717 8.28626 0.964799C8.40334 1.08188 8.46975 1.24027 8.47119 1.40584C8.47263 1.57141 8.40898 1.73093 8.29395 1.85002L4.72164 5.42233C4.60322 5.54071 4.44263 5.60722 4.27519 5.60722C4.10774 5.60722 3.94715 5.54071 3.82873 5.42233L0.256423 1.85002C0.138038 1.7316 0.0715332 1.57101 0.0715332 1.40357C0.0715332 1.23612 0.138038 1.07553 0.256423 0.957107Z" fill="white"/>
</svg>
