<svg width="9" height="6" viewBox="0 0 9 6" fill="none" xmlns="http://www.w3.org/2000/svg">
<path d="M8.2863 5.42229C8.16788 5.54067 8.00729 5.60718 7.83984 5.60718C7.6724 5.60718 7.5118 5.54067 7.39338 5.42229L4.26754 2.29644L1.14169 5.42229C1.0226 5.53732 0.863081 5.60097 0.697508 5.59953C0.531935 5.59809 0.37355 5.53168 0.256469 5.4146C0.139386 5.29751 0.0729742 5.13913 0.0715361 4.97356C0.070097 4.80798 0.133747 4.64847 0.248776 4.52937L3.82108 0.957066C3.9395 0.838681 4.10009 0.772176 4.26754 0.772176C4.43499 0.772176 4.59558 0.838681 4.714 0.957066L8.2863 4.52937C8.40469 4.64779 8.47119 4.80838 8.47119 4.97583C8.47119 5.14328 8.40469 5.30387 8.2863 5.42229Z" fill="white"/>
</svg>
