<svg width="11" height="11" viewBox="0 0 11 11" fill="none" xmlns="http://www.w3.org/2000/svg">
<path d="M3.85615 1.28174H1.98509C1.73697 1.28174 1.49902 1.3803 1.32357 1.55575C1.14813 1.7312 1.04956 1.96915 1.04956 2.21727V4.08833M3.85615 1.28174H8.53381C8.78193 1.28174 9.01989 1.3803 9.19533 1.55575C9.37078 1.7312 9.46934 1.96915 9.46934 2.21727V4.08833M3.85615 1.28174V9.70152M1.04956 4.08833V8.76599C1.04956 9.01411 1.14813 9.25206 1.32357 9.42751C1.49902 9.60296 1.73697 9.70152 1.98509 9.70152H3.85615M1.04956 4.08833H9.46934M9.46934 4.08833V8.76599C9.46934 9.01411 9.37078 9.25206 9.19533 9.42751C9.01989 9.60296 8.78193 9.70152 8.53381 9.70152H3.85615" stroke="white" stroke-width="1.12264" stroke-linecap="round" stroke-linejoin="round"/>
</svg>
