<svg width="14" height="14" viewBox="0 0 14 14" fill="none" xmlns="http://www.w3.org/2000/svg">
<g clip-path="url(#clip0_29474_8237)">
<path d="M6.80615 2.52234H3.01449C2.72717 2.52234 2.45162 2.63648 2.24845 2.83964C2.04529 3.0428 1.93115 3.31835 1.93115 3.60567V11.189C1.93115 11.4763 2.04529 11.7519 2.24845 11.955C2.45162 12.1582 2.72717 12.2723 3.01449 12.2723H10.5978C10.8851 12.2723 11.1607 12.1582 11.3639 11.955C11.567 11.7519 11.6812 11.4763 11.6812 11.189V7.39734M10.8687 1.70984C11.0841 1.49435 11.3764 1.37329 11.6812 1.37329C11.9859 1.37329 12.2782 1.49435 12.4937 1.70984C12.7091 1.92533 12.8302 2.21759 12.8302 2.52234C12.8302 2.82709 12.7091 3.11935 12.4937 3.33484L7.34782 8.48067L5.18115 9.02234L5.72282 6.85567L10.8687 1.70984Z" stroke="#1E1E1E" stroke-width="1.6" stroke-linecap="round" stroke-linejoin="round"/>
</g>
<defs>
<clipPath id="clip0_29474_8237">
<rect width="13" height="13" fill="white" transform="translate(0.8479 0.355713)"/>
</clipPath>
</defs>
</svg>
