<svg width="9" height="6" viewBox="0 0 9 6" fill="none" xmlns="http://www.w3.org/2000/svg">
<path d="M1.92062 1.77586V0.840332H8.46934V1.77586H1.92062ZM1.92062 3.64693V2.71139H8.46934V3.64693H1.92062ZM1.92062 5.51799V4.58246H8.46934V5.51799H1.92062ZM0.517326 1.77586C0.384793 1.77586 0.273698 1.73104 0.184043 1.64138C0.0943881 1.55173 0.0495605 1.44063 0.0495605 1.3081C0.0495605 1.17556 0.0943881 1.06447 0.184043 0.974815C0.273698 0.88516 0.384793 0.840332 0.517326 0.840332C0.64986 0.840332 0.760954 0.88516 0.850609 0.974815C0.940264 1.06447 0.985092 1.17556 0.985092 1.3081C0.985092 1.44063 0.940264 1.55173 0.850609 1.64138C0.760954 1.73104 0.64986 1.77586 0.517326 1.77586ZM0.517326 3.64693C0.384793 3.64693 0.273698 3.6021 0.184043 3.51244C0.0943881 3.42279 0.0495605 3.31169 0.0495605 3.17916C0.0495605 3.04663 0.0943881 2.93553 0.184043 2.84588C0.273698 2.75622 0.384793 2.71139 0.517326 2.71139C0.64986 2.71139 0.760954 2.75622 0.850609 2.84588C0.940264 2.93553 0.985092 3.04663 0.985092 3.17916C0.985092 3.31169 0.940264 3.42279 0.850609 3.51244C0.760954 3.6021 0.64986 3.64693 0.517326 3.64693ZM0.517326 5.51799C0.384793 5.51799 0.273698 5.47316 0.184043 5.38351C0.0943881 5.29385 0.0495605 5.18276 0.0495605 5.05022C0.0495605 4.91769 0.0943881 4.8066 0.184043 4.71694C0.273698 4.62729 0.384793 4.58246 0.517326 4.58246C0.64986 4.58246 0.760954 4.62729 0.850609 4.71694C0.940264 4.8066 0.985092 4.91769 0.985092 5.05022C0.985092 5.18276 0.940264 5.29385 0.850609 5.38351C0.760954 5.47316 0.64986 5.51799 0.517326 5.51799Z" fill="white"/>
</svg>
