<svg width="11" height="11" viewBox="0 0 11 11" fill="none" xmlns="http://www.w3.org/2000/svg">
<path d="M7.3644 4.11358L3.15451 1.68588M1.17586 2.97223L5.25945 5.33445L9.34305 2.97223M5.25945 10.0449V5.32977M9.46934 7.20084V3.45871C9.46917 3.29465 9.42587 3.13352 9.34377 2.99149C9.26166 2.84945 9.14365 2.7315 9.00158 2.64948L5.72722 0.778414C5.585 0.696304 5.42367 0.653076 5.25945 0.653076C5.09523 0.653076 4.9339 0.696304 4.79169 0.778414L1.51733 2.64948C1.37525 2.7315 1.25724 2.84945 1.17514 2.99149C1.09304 3.13352 1.04973 3.29465 1.04956 3.45871V7.20084C1.04973 7.36489 1.09304 7.52602 1.17514 7.66806C1.25724 7.81009 1.37525 7.92804 1.51733 8.01007L4.79169 9.88113C4.9339 9.96324 5.09523 10.0065 5.25945 10.0065C5.42367 10.0065 5.585 9.96324 5.72722 9.88113L9.00158 8.01007C9.14365 7.92804 9.26166 7.81009 9.34377 7.66806C9.42587 7.52602 9.46917 7.36489 9.46934 7.20084Z" stroke="white" stroke-width="1.12264" stroke-linecap="round" stroke-linejoin="round"/>
</svg>
