<svg width="11" height="11" viewBox="0 0 11 11" fill="none" xmlns="http://www.w3.org/2000/svg">
<path d="M4.79168 1.94101H1.51732C1.2692 1.94101 1.03124 2.03958 0.855798 2.21502C0.680352 2.39047 0.581787 2.62842 0.581787 2.87654V9.42526C0.581787 9.67338 0.680352 9.91134 0.855798 10.0868C1.03124 10.2622 1.2692 10.3608 1.51732 10.3608H8.06604C8.31416 10.3608 8.55211 10.2622 8.72756 10.0868C8.90301 9.91134 9.00157 9.67338 9.00157 9.42526V6.1509M8.29992 1.23936C8.48601 1.05327 8.7384 0.94873 9.00157 0.94873C9.26474 0.94873 9.51713 1.05327 9.70322 1.23936C9.88931 1.42545 9.99385 1.67784 9.99385 1.94101C9.99385 2.20418 9.88931 2.45657 9.70322 2.64266L5.25944 7.08643L3.38838 7.5542L3.85615 5.68314L8.29992 1.23936Z" stroke="white" stroke-width="0.89811" stroke-linecap="round" stroke-linejoin="round"/>
</svg>
