<svg width="11" height="10" viewBox="0 0 11 10" fill="none" xmlns="http://www.w3.org/2000/svg">
<path d="M5.25944 2.64621C5.25944 2.14997 5.06232 1.67406 4.71142 1.32317C4.36053 0.972276 3.88462 0.775146 3.38838 0.775146H0.581787V7.79163H3.85615C4.22832 7.79163 4.58526 7.93948 4.84843 8.20265C5.1116 8.46582 5.25944 8.82275 5.25944 9.19493M5.25944 2.64621V9.19493M5.25944 2.64621C5.25944 2.14997 5.45657 1.67406 5.80747 1.32317C6.15836 0.972276 6.63427 0.775146 7.13051 0.775146H9.9371V7.79163H6.66274C6.29056 7.79163 5.93363 7.93948 5.67046 8.20265C5.40729 8.46582 5.25944 8.82275 5.25944 9.19493" stroke="white" stroke-width="1.12264" stroke-linecap="round" stroke-linejoin="round"/>
</svg>
