<svg width="11" height="11" viewBox="0 0 11 11" fill="none" xmlns="http://www.w3.org/2000/svg">
<path d="M8.15771 7.16105C8.10337 7.28418 8.08716 7.42076 8.11117 7.55319C8.13518 7.68562 8.19831 7.80782 8.29242 7.90403L8.31692 7.92852C8.39283 8.00435 8.45305 8.0944 8.49414 8.19351C8.53523 8.29263 8.55638 8.39888 8.55638 8.50617C8.55638 8.61347 8.53523 8.71971 8.49414 8.81883C8.45305 8.91795 8.39283 9.00799 8.31692 9.08382C8.24109 9.15973 8.15104 9.21995 8.05193 9.26104C7.95281 9.30213 7.84657 9.32328 7.73927 9.32328C7.63197 9.32328 7.52573 9.30213 7.42661 9.26104C7.3275 9.21995 7.23745 9.15973 7.16162 9.08382L7.13713 9.05933C7.04092 8.96521 6.91872 8.90208 6.78629 8.87807C6.65386 8.85406 6.51727 8.87027 6.39415 8.92461C6.2734 8.97636 6.17043 9.06228 6.09789 9.17181C6.02536 9.28133 5.98644 9.40968 5.98591 9.54104V9.61044C5.98591 9.82698 5.89989 10.0346 5.74678 10.1878C5.59366 10.3409 5.38599 10.4269 5.16945 10.4269C4.95291 10.4269 4.74524 10.3409 4.59212 10.1878C4.43901 10.0346 4.35299 9.82698 4.35299 9.61044V9.5737C4.34983 9.43858 4.30609 9.30753 4.22746 9.19759C4.14883 9.08766 4.03895 9.00392 3.9121 8.95727C3.78897 8.90293 3.65238 8.88672 3.51995 8.91073C3.38752 8.93474 3.26533 8.99787 3.16911 9.09198L3.14462 9.11648C3.06879 9.19239 2.97875 9.25261 2.87963 9.2937C2.78051 9.33479 2.67427 9.35594 2.56697 9.35594C2.45968 9.35594 2.35343 9.33479 2.25431 9.2937C2.1552 9.25261 2.06515 9.19239 1.98932 9.11648C1.91341 9.04065 1.85319 8.9506 1.8121 8.85149C1.77101 8.75237 1.74987 8.64613 1.74987 8.53883C1.74987 8.43153 1.77101 8.32529 1.8121 8.22617C1.85319 8.12706 1.91341 8.03701 1.98932 7.96118L2.01382 7.93669C2.10793 7.84048 2.17106 7.71828 2.19507 7.58585C2.21909 7.45342 2.20288 7.31684 2.14853 7.19371C2.09678 7.07296 2.01086 6.96999 1.90134 6.89746C1.79181 6.82492 1.66347 6.786 1.5321 6.78547H1.4627C1.24616 6.78547 1.03849 6.69945 0.885377 6.54634C0.73226 6.39322 0.64624 6.18555 0.64624 5.96901C0.64624 5.75247 0.73226 5.5448 0.885377 5.39168C1.03849 5.23857 1.24616 5.15255 1.4627 5.15255H1.49944C1.63457 5.14939 1.76561 5.10565 1.87555 5.02702C1.98548 4.94839 2.06922 4.83851 2.11588 4.71166C2.17022 4.58853 2.18643 4.45194 2.16242 4.31951C2.1384 4.18708 2.07527 4.06489 1.98116 3.96867L1.95666 3.94418C1.88075 3.86835 1.82053 3.77831 1.77944 3.67919C1.73836 3.58007 1.71721 3.47383 1.71721 3.36653C1.71721 3.25924 1.73836 3.15299 1.77944 3.05388C1.82053 2.95476 1.88075 2.86471 1.95666 2.78888C2.03249 2.71297 2.12254 2.65275 2.22166 2.61166C2.32077 2.57057 2.42702 2.54943 2.53431 2.54943C2.64161 2.54943 2.74785 2.57057 2.84697 2.61166C2.94609 2.65275 3.03613 2.71297 3.11196 2.78888L3.13645 2.81338C3.23267 2.90749 3.35487 2.97062 3.48729 2.99463C3.61972 3.01865 3.75631 3.00244 3.87944 2.94809H3.9121C4.03284 2.89635 4.13581 2.81042 4.20835 2.7009C4.28088 2.59137 4.3198 2.46303 4.32033 2.33166V2.26226C4.32033 2.04572 4.40635 1.83805 4.55946 1.68494C4.71258 1.53182 4.92025 1.4458 5.13679 1.4458C5.35333 1.4458 5.561 1.53182 5.71412 1.68494C5.86723 1.83805 5.95326 2.04572 5.95326 2.26226V2.29901C5.95378 2.43037 5.9927 2.55871 6.06524 2.66824C6.13777 2.77776 6.24074 2.86369 6.36149 2.91544C6.48462 2.96978 6.6212 2.98599 6.75363 2.96198C6.88606 2.93796 7.00826 2.87483 7.10447 2.78072L7.12896 2.75623C7.20479 2.68031 7.29484 2.62009 7.39395 2.579C7.49307 2.53792 7.59932 2.51677 7.70661 2.51677C7.81391 2.51677 7.92015 2.53792 8.01927 2.579C8.11839 2.62009 8.20843 2.68031 8.28426 2.75623C8.36017 2.83205 8.42039 2.9221 8.46148 3.02122C8.50257 3.12033 8.52372 3.22658 8.52372 3.33387C8.52372 3.44117 8.50257 3.54741 8.46148 3.64653C8.42039 3.74565 8.36017 3.83569 8.28426 3.91152L8.25977 3.93602C8.16565 4.03223 8.10252 4.15443 8.07851 4.28685C8.0545 4.41928 8.07071 4.55587 8.12505 4.679V4.71166C8.1768 4.8324 8.26272 4.93537 8.37225 5.00791C8.48177 5.08044 8.61012 5.11936 8.74148 5.11989H8.81088C9.02742 5.11989 9.23509 5.20591 9.38821 5.35902C9.54132 5.51214 9.62734 5.71981 9.62734 5.93635C9.62734 6.15289 9.54132 6.36056 9.38821 6.51368C9.23509 6.6668 9.02742 6.75282 8.81088 6.75282H8.77414C8.64277 6.75334 8.51443 6.79226 8.40491 6.8648C8.29538 6.93733 8.20946 7.04031 8.15771 7.16105V7.16105Z" stroke="white" stroke-width="1.12264" stroke-linecap="round" stroke-linejoin="round"/>
</svg>
