<svg width="14" height="15" viewBox="0 0 14 15" fill="none" xmlns="http://www.w3.org/2000/svg">
<path d="M12.4369 5.69299L12.2532 5.2497L12.0317 4.8241L11.7739 4.41943L11.4818 4.03876L11.1576 3.68501L10.8039 3.36085L10.4232 3.06876L10.0186 2.81096L9.59296 2.5894L9.14967 2.40579L8.69206 2.2615L8.22362 2.15765L7.74791 2.09503L7.26855 2.0741L6.7892 2.09503L6.31349 2.15765L5.84505 2.2615L5.38744 2.40579L4.94415 2.5894L4.51855 2.81096L4.11388 3.06876L3.73322 3.36085L3.37947 3.68501L3.05531 4.03876L2.76322 4.41943L2.50541 4.8241L2.28386 5.2497L2.10025 5.69299L1.95596 6.15059L1.85211 6.61903L1.78948 7.09474L1.76855 7.5741L1.78948 8.05345L1.85211 8.52916L1.95596 8.9976L2.10025 9.45521L2.28386 9.8985L2.50541 10.3241L2.76322 10.7288L3.05531 11.1094L3.37947 11.4632L3.73322 11.7873L4.11388 12.0794L4.51855 12.3372L4.94415 12.5588L5.38744 12.7424L5.84505 12.8867L6.31349 12.9905L6.7892 13.0532L7.26855 13.0741L7.74791 13.0532L8.22362 12.9905L8.69206 12.8867L9.14967 12.7424L9.59296 12.5588L10.0186 12.3372L10.4232 12.0794L10.8039 11.7873" stroke="#0E1B6B" stroke-width="2.25" stroke-linecap="round"/>
</svg>
