<svg width="11" height="11" viewBox="0 0 11 11" fill="none" xmlns="http://www.w3.org/2000/svg">
<path d="M3.89825 3.97773C4.00822 3.66511 4.22529 3.40149 4.511 3.23358C4.79671 3.06566 5.13263 3.00428 5.45926 3.06031C5.78589 3.11633 6.08216 3.28615 6.29558 3.53968C6.509 3.79321 6.62581 4.11409 6.62532 4.44549C6.62532 5.38103 5.22202 5.84879 5.22202 5.84879M5.25944 7.71986H5.26412M9.9371 5.38103C9.9371 7.96443 7.84284 10.0587 5.25944 10.0587C2.67605 10.0587 0.581787 7.96443 0.581787 5.38103C0.581787 2.79763 2.67605 0.703369 5.25944 0.703369C7.84284 0.703369 9.9371 2.79763 9.9371 5.38103Z" stroke="white" stroke-width="1.12264" stroke-linecap="round" stroke-linejoin="round"/>
</svg>
