<svg width="13" height="13" viewBox="0 0 13 13" fill="none" xmlns="http://www.w3.org/2000/svg">
<g clip-path="url(#clip0_29259_9366)">
<path d="M11.9346 2.31913V5.31913M11.9346 5.31913H8.93457M11.9346 5.31913L9.61457 3.13913C9.0772 2.60149 8.41238 2.20873 7.68216 1.99752C6.95195 1.7863 6.18012 1.76351 5.43871 1.93126C4.6973 2.09901 4.01047 2.45185 3.4423 2.95684C2.87414 3.46183 2.44315 4.10252 2.18957 4.81913M0.93457 10.3191V7.31913M0.93457 7.31913H3.93457M0.93457 7.31913L3.25457 9.49913C3.79194 10.0368 4.45676 10.4295 5.18697 10.6407C5.91719 10.852 6.68902 10.8748 7.43043 10.707C8.17184 10.5392 8.85867 10.1864 9.42684 9.68142C9.995 9.17643 10.426 8.53574 10.6796 7.81913" stroke="#1E1E1E" stroke-width="1.2" stroke-linecap="round" stroke-linejoin="round"/>
</g>
<defs>
<clipPath id="clip0_29259_9366">
<rect width="12" height="12" fill="white" transform="translate(0.43457 0.318359)"/>
</clipPath>
</defs>
</svg>
