<svg width="10" height="12" viewBox="0 0 10 12" fill="none" xmlns="http://www.w3.org/2000/svg">
<path d="M6.19499 1.44189H2.45287C2.20475 1.44189 1.96679 1.54046 1.79134 1.71591C1.6159 1.89135 1.51733 2.12931 1.51733 2.37743V9.86168C1.51733 10.1098 1.6159 10.3478 1.79134 10.5232C1.96679 10.6986 2.20475 10.7972 2.45287 10.7972H8.06605C8.31417 10.7972 8.55213 10.6986 8.72757 10.5232C8.90302 10.3478 9.00159 10.1098 9.00159 9.86168V4.24849M6.19499 1.44189L9.00159 4.24849M6.19499 1.44189L6.19499 4.24849H9.00159M7.13052 6.58732H3.3884M7.13052 8.45838H3.3884M4.32393 4.71625H3.3884" stroke="white" stroke-width="1.12264" stroke-linecap="round" stroke-linejoin="round"/>
</svg>
