<svg width="15" height="16" viewBox="0 0 15 16" fill="none" xmlns="http://www.w3.org/2000/svg">
<path d="M1.43262 4.26786H2.76595M2.76595 4.26786H13.4326M2.76595 4.26786L2.76595 13.6012C2.76595 13.9548 2.90643 14.294 3.15647 14.544C3.40652 14.7941 3.74566 14.9345 4.09928 14.9345H10.766C11.1196 14.9345 11.4587 14.7941 11.7088 14.544C11.9588 14.294 12.0993 13.9548 12.0993 13.6012V4.26786M4.76595 4.26786V2.93453C4.76595 2.58091 4.90643 2.24177 5.15648 1.99172C5.40652 1.74167 5.74566 1.6012 6.09928 1.6012H8.76595C9.11957 1.6012 9.45871 1.74167 9.70876 1.99172C9.95881 2.24177 10.0993 2.58091 10.0993 2.93453V4.26786M6.09928 7.6012V11.6012M8.76595 7.6012V11.6012" stroke="#FF0000" stroke-width="1.6" stroke-linecap="round" stroke-linejoin="round"/>
</svg>
