<svg width="11" height="11" viewBox="0 0 11 11" fill="none" xmlns="http://www.w3.org/2000/svg">
<path d="M6.5223 3.52335C6.4366 3.61079 6.38859 3.72835 6.38859 3.85079C6.38859 3.97323 6.4366 4.09078 6.5223 4.17822L7.27073 4.92665C7.35817 5.01235 7.47573 5.06036 7.59817 5.06036C7.7206 5.06036 7.83816 5.01235 7.9256 4.92665L9.68908 3.16317C9.92429 3.68295 9.9955 4.26206 9.89324 4.82334C9.79097 5.38462 9.52008 5.9014 9.11666 6.30482C8.71325 6.70823 8.19646 6.97912 7.63519 7.08139C7.07391 7.18366 6.49479 7.11244 5.97502 6.87723L2.74276 10.1095C2.55667 10.2956 2.30428 10.4001 2.04111 10.4001C1.77794 10.4001 1.52555 10.2956 1.33946 10.1095C1.15337 9.9234 1.04883 9.67101 1.04883 9.40784C1.04883 9.14467 1.15337 8.89228 1.33946 8.70619L4.57172 5.47393C4.33651 4.95416 4.2653 4.37504 4.36756 3.81376C4.46983 3.25249 4.74072 2.73571 5.14414 2.33229C5.54755 1.92887 6.06434 1.65798 6.62561 1.55571C7.18689 1.45345 7.766 1.52466 8.28578 1.75987L6.5223 3.52335Z" stroke="white" stroke-width="1.12264" stroke-linecap="round" stroke-linejoin="round"/>
</svg>
